# xmcd
#
# Track frame offsets:
#	150
#	13991
#	28620
#	44094
#	61330
#	77474
#	94592
#	110505
#	125377
#	140149
#	154859
#	172025
#	187687
#	201717
#	215080
#	227636
#	241958
#	257203
#	273464
#	289871
#	305792
#
# Disc length: 4287 seconds
#
# Revision: 1
# Processed by: cddbd v1.5.2PL0 Copyright (c) Steve Scherf et al.
# Submitted via: EZCDAudioConverter 7.1.0.1
#
DISCID=4010bd15
DTITLE=Hott Country Volume 272 CAN
DYEAR=2018
DGENRE=country
TTITLE0=Billy Currington - Bring It On Over
TTITLE1=Jason Aldean - Girl Like You
TTITLE2=Meghan Patrick - Walls Come Down
TTITLE3=Carrie Underwood - Love Wins
TTITLE4=Rachel Wammack - Damage
TTITLE5=Charlie Major and Friends - It Can't Happen To Me (Remake)
TTITLE6=Jon Langston - When It Comes To Loving You
TTITLE7=Seth Ennis ft. Little Big Town - Call Your Mama
TTITLE8=Eric Ethridge - California
TTITLE9=Morgan Evans - Day Drunk
TTITLE10=Tenille Townes - Somebody's Daughter
TTITLE11=Chris Lane - I Don't Know About You
TTITLE12=Tebey - Who's Gonna Love You [Super Clean Edit]
TTITLE13=Chris Buck Band - RDNKN (Red Neckin')
TTITLE14=Austin Burke - Whole Lot In Love
TTITLE15=Tenille Arts - I Hate This
TTITLE16=AC Jones - Mr. Moon
TTITLE17=Lee Gantt - Ruined This Town
TTITLE18=Alexandra Demetree - Coastin'
TTITLE19=Cassadee Pope - One More Red Light
TTITLE20=Jason Blaine - Ain't Got Growin' Up Down Yet
EXTD=
EXTT0=
EXTT1=
EXTT2=
EXTT3=
EXTT4=
EXTT5=
EXTT6=
EXTT7=
EXTT8=
EXTT9=
EXTT10=
EXTT11=
EXTT12=
EXTT13=
EXTT14=
EXTT15=
EXTT16=
EXTT17=
EXTT18=
EXTT19=
EXTT20=
PLAYORDER=
